# xmcd
#
# Track frame offsets: 
#        150
#        26633
#        46613
#        68225
#        91065
#        116763
#        142725
#
# Disc length: 2158 seconds
#
# Revision: 0
# Processed by: cddbd v1.5PL3 Copyright (c) Steve Scherf et al.
# Submitted via: ExactAudioCopy v0.90a11
#
DISCID=50086c07
DTITLE=Brickhouse - Snacks E.P.
DYEAR=1900
DGENRE=
TTITLE0=Never let the phone ring twice
TTITLE1=Macrame Owl
TTITLE2=Fallen
TTITLE3=Fold up bike
TTITLE4=Mashed potatoes
TTITLE5=Misery
TTITLE6=Jumpy G
EXTD=
EXTT0=
EXTT1=
EXTT2=
EXTT3=
EXTT4=
EXTT5=
EXTT6=
PLAYORDER=
